# xmcd
#
# Track frame offsets: 
#        150
#        12605
#        27952
#        44014
#        59020
#        72012
#        85562
#        96926
#        115976
#        140627
#        160100
#
# Disc length: 2468 seconds
#
# Revision: 1
# Processed by: cddbd v1.5.2PL0 Copyright (c) Steve Scherf et al.
# Submitted via: ExactAudioCopy v0.95b4
#
DISCID=9709a20b
DTITLE=Various Artist - Tribute To Slayer :Slatanic Slaughter 
DYEAR=1995
DGENRE=Metal
TTITLE0=Dissection - Anti Christ
TTITLE1=Hypocrisy - Black Magic
TTITLE2=Merciless - Crionics
TTITLE3=At The Gates - Captor Of Sin
TTITLE4=Invocator - Altar Of Sacrifice
TTITLE5=Enslaved - Jesus Saves
TTITLE6=Edge Of Sanity - Criminally Insane
TTITLE7=Seance - Post Mortem
TTITLE8=Cemetary - South Of Heaven
TTITLE9=Crown Of Thorns - Mandatory Suicide
TTITLE10=Grope - Spill The Blood
EXTD=
EXTT0=
EXTT1=
EXTT2=
EXTT3=
EXTT4=
EXTT5=
EXTT6=
EXTT7=
EXTT8=
EXTT9=
EXTT10=
PLAYORDER=
